<svg width="278" height="25" viewBox="0 0 278 25" fill="none" xmlns="http://www.w3.org/2000/svg">
    <path d="M3.195 21.08a12.355 12.355 0 0 1-2.463-4.116 12.486 12.486 0 0 1-.72-4.76 12.452 12.452 0 0 1 3.183-8.78A10.772 10.772 0 0 1 6.88.842 10.637 10.637 0 0 1 11.28.003c1.931-.027 3.832.487 5.494 1.483v4.785a8.78 8.78 0 0 0-5.47-1.818A6.472 6.472 0 0 0 8.598 5a6.557 6.557 0 0 0-2.244 1.63 7.771 7.771 0 0 0-1.957 5.502 7.867 7.867 0 0 0 2.004 5.527c.65.704 1.44 1.26 2.319 1.631a6.634 6.634 0 0 0 2.774.522 8.226 8.226 0 0 0 5.705-2.058v4.785a10.263 10.263 0 0 1-5.918 1.723 10.494 10.494 0 0 1-4.377-.717 10.621 10.621 0 0 1-3.71-2.465zM21.042 24.022V.577h9.1a7.097 7.097 0 0 1 2.823.49c.9.353 1.72.886 2.411 1.568a6.78 6.78 0 0 1 1.508 2.338 6.86 6.86 0 0 1 .45 2.757 6.836 6.836 0 0 1-.462 2.72 6.756 6.756 0 0 1-1.496 2.304 7.06 7.06 0 0 1-2.437 1.55 6.978 6.978 0 0 1-2.844.436H25.38v9.282h-4.338zm4.29-13.397h4.504c2.051 0 3.277-1.052 3.277-2.918 0-1.867-1.226-2.92-3.277-2.92h-4.503v5.838zM40.257 24.022V.577h9.619a6.979 6.979 0 0 1 2.813.424c.9.333 1.723.848 2.42 1.514a6.732 6.732 0 0 1 1.462 2.251 6.81 6.81 0 0 1 .472 2.653 6.555 6.555 0 0 1-1.085 3.977 6.401 6.401 0 0 1-3.23 2.507l6.437 10.024h-4.927l-6.06-9.57h-3.654v9.57l-4.267.095zm4.267-13.54h5.116c1.934 0 3.089-1.005 3.089-2.847a2.786 2.786 0 0 0-.206-1.18 2.751 2.751 0 0 0-.68-.98 2.674 2.674 0 0 0-2.203-.688h-5.116v5.695zM70.104 22.06a8.898 8.898 0 0 1-1.817-2.976 8.993 8.993 0 0 1-.54-3.459 8.606 8.606 0 0 1 .528-3.419 8.51 8.51 0 0 1 1.83-2.92 7.892 7.892 0 0 1 2.634-1.795 7.797 7.797 0 0 1 3.118-.598 8.669 8.669 0 0 1 4.385 1.1v4.02a8.112 8.112 0 0 0-3.772-1.005 4.673 4.673 0 0 0-3.372 1.196 4.968 4.968 0 0 0-1.305 3.361c0 1.248.467 2.45 1.305 3.362.432.43.945.768 1.508.994a4.47 4.47 0 0 0 1.77.321 6.998 6.998 0 0 0 4.007-1.148v4.043a8.88 8.88 0 0 1-4.715 1.22 7.659 7.659 0 0 1-3.01-.58 7.75 7.75 0 0 1-2.554-1.716zM83.566 19.836V.696h4.197v18.015c0 1.125.448 1.675 1.32 1.675.381.01.758-.089 1.085-.287v3.875a5.333 5.333 0 0 1-2.64.598c-2.311-.12-3.962-1.387-3.962-4.736zM107.897 20.17v3.446a3.266 3.266 0 0 1-2.357.717 3.22 3.22 0 0 1-2.035-.5 3.291 3.291 0 0 1-1.313-1.653 6.537 6.537 0 0 1-2.307 1.72 6.45 6.45 0 0 1-2.81.553 5.143 5.143 0 0 1-2.147-.349 5.203 5.203 0 0 1-1.821-1.209 5.298 5.298 0 0 1-1.175-1.857 5.359 5.359 0 0 1-.326-2.183c-.057-.769.07-1.54.37-2.248a4.78 4.78 0 0 1 1.351-1.82 6.236 6.236 0 0 1 4.126-1.41 8.387 8.387 0 0 1 4.291 1.028v-.502c0-2.106-1.32-3.134-3.937-3.134a7.98 7.98 0 0 0-4.48 1.387V8.21a10.415 10.415 0 0 1 5.706-1.34 7.266 7.266 0 0 1 5.116 1.747 6.157 6.157 0 0 1 1.499 2.173c.338.826.494 1.717.458 2.611v5.646c0 .838.353 1.292 1.037 1.292.261.008.52-.05.754-.167zm-6.059-2.75a5.155 5.155 0 0 0-3.088-.958c-1.792 0-2.924.79-2.924 2.178 0 1.387 1.108 2.177 2.64 2.177.661.031 1.319-.11 1.909-.413a3.855 3.855 0 0 0 1.463-1.31V17.42zM109.783 22.898v-4.21a10.83 10.83 0 0 0 6.059 1.913c1.698 0 2.57-.454 2.57-1.411 0-.231-.074-.456-.21-.641a1.06 1.06 0 0 0-.544-.388 4.037 4.037 0 0 0-.778-.311l-1.085-.287c-.519-.168-.919-.263-1.202-.383-3.419-1.029-4.715-2.225-4.715-5.191 0-2.967 2.357-5.12 6.53-5.12a9.444 9.444 0 0 1 5.564 1.531v4.043a9.5 9.5 0 0 0-5.375-1.746c-1.58 0-2.358.43-2.358 1.34 0 .909.377.789.825 1.1.448.311.92.311 1.297.43l1.556.383c3.23.838 4.857 2.393 4.857 5.288a4.544 4.544 0 0 1-.446 2.118 4.471 4.471 0 0 1-1.37 1.661 7.442 7.442 0 0 1-4.715 1.436 11 11 0 0 1-6.46-1.555zM124.966 22.898v-4.21a10.853 10.853 0 0 0 6.083 1.913c1.674 0 2.546-.454 2.546-1.411 0-.231-.074-.456-.21-.641a1.055 1.055 0 0 0-.544-.388 3.871 3.871 0 0 0-.755-.311l-1.108-.287c-.495-.168-.919-.263-1.179-.383-3.418-1.029-4.833-2.225-4.833-5.191 0-2.967 2.476-5.12 6.555-5.12a9.328 9.328 0 0 1 5.54 1.531v4.043a9.337 9.337 0 0 0-5.375-1.746c-1.58 0-2.358.43-2.358 1.34 0 .909.401.79.849 1.1.448.311.919.311 1.273.43l1.579.383c3.207.838 4.716 2.393 4.716 5.288.023.732-.13 1.46-.446 2.118a4.48 4.48 0 0 1-1.37 1.661 7.373 7.373 0 0 1-4.715 1.436 11.048 11.048 0 0 1-6.248-1.555z" fill="#C84637"/>
    <path d="M147.27 7.725h1.273v5.622a3.813 3.813 0 0 1 1.292-1.227 3.756 3.756 0 0 1 4.837.94 5.19 5.19 0 0 1 1.109 3.397 5.266 5.266 0 0 1-1.156 3.421c-.379.465-.86.834-1.404 1.078a3.795 3.795 0 0 1-3.425-.16 3.858 3.858 0 0 1-1.3-1.205v1.46h-1.226V7.724zm1.226 10.287c.23.591.625 1.102 1.135 1.471.51.37 1.115.582 1.741.61.444.02.887-.062 1.295-.24a2.95 2.95 0 0 0 1.062-.788c.58-.728.897-1.636.897-2.572 0-.936-.317-1.844-.897-2.572a2.899 2.899 0 0 0-1.057-.806 2.863 2.863 0 0 0-1.3-.246 3.153 3.153 0 0 0-1.754.608 3.222 3.222 0 0 0-1.122 1.497v3.038zM157.006 24.735v-1.268c.341.186.722.285 1.109.287 1.037 0 1.673-.91 2.357-2.99l-3.654-8.9h1.367l2.9 7.177 2.829-7.177h1.321l-4.056 10.263c-.73 1.914-1.721 2.871-2.947 2.871a2.518 2.518 0 0 1-1.226-.263zM173.533 21.098h-2.357V7.725h2.357v5a3.598 3.598 0 0 1 1.254-1.038 3.54 3.54 0 0 1 1.576-.373c1.98 0 3.112 1.483 3.112 3.947v5.837h-2.358v-5.287c0-1.483-.731-2.033-1.603-2.033-.4.023-.787.15-1.126.368-.338.217-.616.519-.807.876l-.048 6.076zM182.587 19.974a4.985 4.985 0 0 1-1.041-1.69 5.04 5.04 0 0 1-.303-1.97 5.218 5.218 0 0 1 1.226-3.541 3.97 3.97 0 0 1 1.424-1.105 3.914 3.914 0 0 1 1.759-.354 3.491 3.491 0 0 1 1.65.362c.513.254.958.63 1.297 1.097a5.818 5.818 0 0 1 1.084 3.588v.694h-6.059c.142.632.51 1.188 1.033 1.56a2.54 2.54 0 0 0 1.797.45 4.855 4.855 0 0 0 2.711-.861v2.177a4.832 4.832 0 0 1-3.23.98 4.652 4.652 0 0 1-1.81-.355 4.71 4.71 0 0 1-1.538-1.032zm4.715-4.617a1.857 1.857 0 0 0-.489-1.333 1.792 1.792 0 0 0-1.279-.582 1.886 1.886 0 0 0-1.357.551 1.935 1.935 0 0 0-.576 1.364h3.701zM200.222 18.85v1.985a2.198 2.198 0 0 1-1.789.311 2.215 2.215 0 0 1-1.418-1.148c-.358.428-.807.77-1.313.997a3.633 3.633 0 0 1-1.61.319 2.954 2.954 0 0 1-1.21-.206 3 3 0 0 1-1.699-1.724 3.063 3.063 0 0 1-.203-1.228c-.032-.45.041-.9.213-1.316.172-.416.438-.785.777-1.077a3.643 3.643 0 0 1 2.358-.79 4.66 4.66 0 0 1 2.357.599v-.287c0-1.22-.754-1.794-2.357-1.794a4.67 4.67 0 0 0-2.547.79v-2.25a5.828 5.828 0 0 1 3.136-.765 4.181 4.181 0 0 1 2.924.98 3.51 3.51 0 0 1 1.108 2.776v3.23c0 .478.212.717.613.717a.909.909 0 0 0 .66-.12zm-3.442-1.556a2.943 2.943 0 0 0-1.769-.55c-1.037 0-1.674.455-1.674 1.22 0 .766.637 1.244 1.509 1.244.374.008.745-.075 1.081-.241.336-.167.628-.412.853-.715v-.957zM201.99 21.098v-9.425h2.358v1.602a3.64 3.64 0 0 1 1.202-1.291 3.15 3.15 0 0 1 1.768-.55h.26v2.63a3.242 3.242 0 0 0-.755 0c-.502.038-.985.211-1.4.501-.414.29-.745.688-.957 1.15v5.575l-2.476-.192zM209.228 8.945h2.358v2.728h2.357v2.392h-2.357v3.78c0 .933.353 1.34 1.155 1.34.441.001.874-.123 1.25-.36v2.25c-.61.376-1.316.559-2.028.526-1.839 0-2.758-1.077-2.758-3.23l.023-9.426zM217.456 7.414c.322-.039.649.023.936.176.287.154.522.393.672.684a1.645 1.645 0 0 1-.217 1.832 1.602 1.602 0 0 1-.814.502 1.58 1.58 0 0 1-.95-.055 1.61 1.61 0 0 1-.753-.592 1.649 1.649 0 0 1-.289-.92 1.53 1.53 0 0 1 .367-1.118 1.488 1.488 0 0 1 1.048-.509zm-1.179 13.684v-9.425h2.358v9.569l-2.358-.144zM220.733 20.38v-1.41a5.51 5.51 0 0 0 3.371 1.123c1.415 0 2.358-.55 2.358-1.483a1.092 1.092 0 0 0-.155-.577 1.067 1.067 0 0 0-.434-.404 3.33 3.33 0 0 0-.849-.335l-.566-.143-.566-.168c-1.957-.55-2.853-1.196-2.853-2.775s1.108-2.536 3.183-2.536a4.989 4.989 0 0 1 2.994.838v1.363a5.088 5.088 0 0 0-2.947-.957c-1.391 0-2.098.55-2.098 1.364-.005.216.053.429.166.612.113.183.277.328.471.417.215.1.435.188.66.263l.377.12c.261.094.529.166.802.215 1.886.526 2.97 1.196 2.97 2.775a2.267 2.267 0 0 1-.99 1.962 4.015 4.015 0 0 1-2.476.741 6.343 6.343 0 0 1-3.418-1.004zM230.753 19.974a4.797 4.797 0 0 1-.981-1.605 4.85 4.85 0 0 1-.292-1.864 5.122 5.122 0 0 1 1.155-3.469c.36-.451.817-.813 1.336-1.058a3.701 3.701 0 0 1 1.658-.353c2.759 0 3.843 2.727 3.843 4.784v.383h-6.743a3.413 3.413 0 0 0 1.065 2.384 3.313 3.313 0 0 0 2.425.894 4.41 4.41 0 0 0 2.64-.862v1.22a4.2 4.2 0 0 1-2.876.886 4.282 4.282 0 0 1-1.754-.326 4.338 4.338 0 0 1-1.476-1.014zm5.47-4.282a3.26 3.26 0 0 0-.708-1.938 2.214 2.214 0 0 0-.855-.693 2.189 2.189 0 0 0-1.078-.192 2.561 2.561 0 0 0-1.095.207 2.6 2.6 0 0 0-.909.654 3.137 3.137 0 0 0-.825 1.962h5.47zM241.127 21.098h-1.226v-9.234h1.226v1.411a4.049 4.049 0 0 1 1.443-1.224 3.986 3.986 0 0 1 1.834-.426c2.028 0 3.112 1.435 3.112 3.851v5.622h-1.226v-5.31c0-2.393-1.32-2.848-2.358-2.848-.6.009-1.18.22-1.65.599a3.568 3.568 0 0 0-1.202 1.34l.047 6.22zM249.92 20.38v-1.41a5.513 5.513 0 0 0 3.372 1.124c1.414 0 2.357-.55 2.357-1.484a1.12 1.12 0 0 0-.589-.98 3.158 3.158 0 0 0-.872-.335l-.543-.144-.565-.168c-1.957-.55-2.877-1.196-2.877-2.775s1.203-2.583 3.301-2.583a5.06 5.06 0 0 1 2.994.837v1.364a5.133 5.133 0 0 0-2.947-.957c-1.414 0-2.098.55-2.098 1.363a1.135 1.135 0 0 0 .613 1.029c.283 0 .354.168.66.263l.377.12c.27.091.546.163.825.215 1.886.526 2.971 1.196 2.971 2.775.002.384-.087.762-.259 1.104a2.39 2.39 0 0 1-.731.858 4.084 4.084 0 0 1-2.499.742 6.32 6.32 0 0 1-3.49-.957zM259.894 19.974a4.8 4.8 0 0 1-.994-1.602 4.848 4.848 0 0 1-.303-1.867 5.243 5.243 0 0 1 1.155-3.469 3.806 3.806 0 0 1 1.349-1.059 3.746 3.746 0 0 1 1.669-.352c2.735 0 3.819 2.727 3.819 4.784v.383h-6.743a3.404 3.404 0 0 0 1.073 2.393 3.28 3.28 0 0 0 2.44.885 4.46 4.46 0 0 0 2.641-.862v1.22a4.249 4.249 0 0 1-2.877.886 4.283 4.283 0 0 1-1.753-.326 4.327 4.327 0 0 1-1.476-1.014zm5.469-4.282a3.597 3.597 0 0 0-.707-1.938 2.362 2.362 0 0 0-.863-.676 2.327 2.327 0 0 0-1.07-.21 2.492 2.492 0 0 0-2.004.862 3.152 3.152 0 0 0-.849 1.962h5.493zM269.371 13.634V8.538h-1.698v-.813h4.291v.813h-1.744v5.096h-.849zm3.536 0V7.725h.778l1.769 2.56 1.744-2.56H278v5.91h-.849V9.28l-1.462 2.13h-.448l-1.485-2.13v4.474l-.849-.12z" fill="#585858"/>
</svg>
