<svg width="576" height="42" viewBox="0 0 576 42" fill="none" xmlns="http://www.w3.org/2000/svg">
    <path d="M28.863 21.4h3.045c.85 0 1.61.11 2.28.33.68.22 1.255.56 1.725 1.02.48.45.845 1.02 1.095 1.71.26.69.39 1.505.39 2.445 0 .93-.13 1.745-.39 2.445-.25.7-.61 1.285-1.08 1.755-.46.46-1.02.81-1.68 1.05-.66.23-1.4.345-2.22.345h-3.165V21.4zm2.91 9.315c.52 0 .985-.07 1.395-.21.42-.15.775-.375 1.065-.675.29-.31.51-.705.66-1.185.16-.48.24-1.06.24-1.74 0-.68-.08-1.255-.24-1.725-.15-.48-.37-.865-.66-1.155-.29-.3-.645-.515-1.065-.645-.41-.14-.875-.21-1.395-.21h-.69v7.545h.69zm11.228 1.995a3.918 3.918 0 0 1-2.805-1.155c-.37-.38-.67-.84-.9-1.38-.22-.55-.33-1.17-.33-1.86 0-.7.11-1.325.33-1.875.23-.55.53-1.01.9-1.38.37-.38.795-.67 1.275-.87a4.011 4.011 0 0 1 3.045 0c.49.2.92.49 1.29.87.37.37.665.83.885 1.38.23.55.345 1.175.345 1.875 0 .69-.115 1.31-.345 1.86-.22.54-.515 1-.885 1.38-.37.37-.8.655-1.29.855-.49.2-.995.3-1.515.3zm0-1.8c.57 0 1.01-.235 1.32-.705.31-.47.465-1.1.465-1.89 0-.8-.155-1.435-.465-1.905-.31-.48-.75-.72-1.32-.72-.57 0-1.01.24-1.32.72-.31.47-.465 1.105-.465 1.905 0 .79.155 1.42.465 1.89.31.47.75.705 1.32.705zm5.98-6.81h1.8l.15 1.11h.06c.37-.36.775-.67 1.215-.93.44-.26.945-.39 1.515-.39.91 0 1.57.3 1.98.9.41.59.615 1.415.615 2.475V32.5h-2.205v-4.965c0-.65-.095-1.105-.285-1.365-.18-.26-.48-.39-.9-.39-.35 0-.65.08-.9.24-.25.16-.535.395-.855.705V32.5h-2.19v-8.4zm12.664 12.045c-.5 0-.965-.045-1.395-.135-.42-.08-.79-.21-1.11-.39a2.18 2.18 0 0 1-.734-.675 1.69 1.69 0 0 1-.27-.96c0-.35.104-.675.314-.975.21-.29.505-.545.886-.765v-.075c-.22-.14-.405-.32-.555-.54-.14-.23-.21-.52-.21-.87 0-.32.09-.615.27-.885.19-.28.41-.51.66-.69v-.06c-.29-.21-.55-.505-.78-.885-.22-.38-.33-.815-.33-1.305s.09-.925.27-1.305c.19-.38.44-.7.75-.96.32-.26.68-.455 1.08-.585.41-.13.84-.195 1.29-.195.23 0 .455.02.675.06.22.04.414.09.584.15h3.03v1.62h-1.44c.11.14.2.325.27.555.08.22.12.46.12.72 0 .47-.084.885-.254 1.245-.17.35-.4.645-.69.885-.29.24-.635.42-1.035.54-.39.12-.81.18-1.26.18-.17 0-.35-.015-.54-.045-.18-.04-.36-.09-.54-.15-.12.1-.21.205-.27.315-.06.1-.09.235-.09.405 0 .23.094.405.285.525.19.11.535.165 1.035.165h1.425c1.02 0 1.794.165 2.325.495.53.33.794.865.794 1.605 0 .42-.105.81-.314 1.17-.21.37-.516.69-.916.96-.39.27-.87.48-1.44.63-.56.15-1.19.225-1.89.225zm.136-7.665c.37 0 .68-.13.93-.39.25-.27.375-.655.375-1.155s-.125-.88-.375-1.14c-.24-.27-.55-.405-.93-.405s-.695.135-.945.405c-.25.26-.375.64-.375 1.14 0 .5.125.885.375 1.155.26.26.575.39.945.39zm.194 6.27c.63 0 1.14-.12 1.53-.36.4-.24.6-.525.6-.855 0-.3-.12-.5-.36-.6-.24-.1-.584-.15-1.034-.15h-1.02c-.26 0-.486-.01-.675-.03-.18-.02-.346-.05-.495-.09-.37.3-.556.625-.556.975s.18.62.54.81c.36.2.85.3 1.47.3zm5.766-2.25V20.53h2.19V32.5h-2.19zm8.476.21c-.59 0-1.14-.1-1.65-.3-.5-.2-.94-.485-1.32-.855a4.25 4.25 0 0 1-.885-1.38c-.21-.55-.315-1.17-.315-1.86 0-.68.11-1.29.33-1.83.22-.55.51-1.015.87-1.395.37-.39.79-.685 1.26-.885a3.53 3.53 0 0 1 1.455-.315c.58 0 1.085.1 1.515.3.44.2.805.48 1.095.84.3.36.525.785.675 1.275.15.49.225 1.025.225 1.605 0 .2-.01.395-.03.585-.02.18-.045.32-.075.42h-5.175c.09.69.34 1.215.75 1.575.42.35.945.525 1.575.525.35 0 .675-.05.975-.15.31-.1.615-.245.915-.435l.75 1.35c-.42.29-.885.52-1.395.69-.5.16-1.015.24-1.545.24zm1.365-5.25c0-.57-.13-1.02-.39-1.35-.26-.34-.66-.51-1.2-.51-.44 0-.835.16-1.185.48-.35.31-.565.77-.645 1.38h3.42zm12.014 5.25c-.7 0-1.36-.125-1.98-.375a4.602 4.602 0 0 1-1.62-1.095c-.46-.48-.825-1.075-1.095-1.785-.26-.71-.39-1.53-.39-2.46 0-.91.135-1.725.405-2.445.28-.72.655-1.33 1.125-1.83s1.015-.88 1.635-1.14c.63-.26 1.295-.39 1.995-.39.71 0 1.34.145 1.89.435.55.28 1.005.61 1.365.99l-1.17 1.41c-.28-.27-.585-.49-.915-.66a2.31 2.31 0 0 0-1.125-.27c-.42 0-.81.09-1.17.27-.36.17-.67.42-.93.75s-.465.73-.615 1.2a5.274 5.274 0 0 0-.225 1.605c0 .6.065 1.14.195 1.62.14.48.335.89.585 1.23.26.33.565.585.915.765.36.17.76.255 1.2.255.48 0 .905-.1 1.275-.3.38-.21.72-.475 1.02-.795l1.17 1.38c-.46.54-.985.95-1.575 1.23-.59.27-1.245.405-1.965.405zm8.759 0a3.918 3.918 0 0 1-2.805-1.155c-.37-.38-.67-.84-.9-1.38-.22-.55-.33-1.17-.33-1.86 0-.7.11-1.325.33-1.875.23-.55.53-1.01.9-1.38.37-.38.795-.67 1.275-.87a4.011 4.011 0 0 1 3.045 0c.49.2.92.49 1.29.87.37.37.665.83.885 1.38.23.55.345 1.175.345 1.875 0 .69-.115 1.31-.345 1.86-.22.54-.515 1-.885 1.38-.37.37-.8.655-1.29.855-.49.2-.995.3-1.515.3zm0-1.8c.57 0 1.01-.235 1.32-.705.31-.47.465-1.1.465-1.89 0-.8-.155-1.435-.465-1.905-.31-.48-.75-.72-1.32-.72-.57 0-1.01.24-1.32.72-.31.47-.465 1.105-.465 1.905 0 .79.155 1.42.465 1.89.31.47.75.705 1.32.705zm5.979-6.81h1.8l.15 1.11h.06c.37-.36.775-.67 1.215-.93.44-.26.945-.39 1.515-.39.91 0 1.57.3 1.98.9.41.59.615 1.415.615 2.475V32.5h-2.205v-4.965c0-.65-.095-1.105-.285-1.365-.18-.26-.48-.39-.9-.39-.35 0-.65.08-.9.24-.25.16-.535.395-.855.705V32.5h-2.19v-8.4zm9.71 0h1.8l.15 1.11h.06c.37-.36.775-.67 1.215-.93.44-.26.945-.39 1.515-.39.91 0 1.57.3 1.98.9.41.59.615 1.415.615 2.475V32.5h-2.205v-4.965c0-.65-.095-1.105-.285-1.365-.18-.26-.48-.39-.9-.39-.35 0-.65.08-.9.24-.25.16-.535.395-.855.705V32.5h-2.19v-8.4zm13.354 8.61c-.59 0-1.14-.1-1.65-.3-.5-.2-.94-.485-1.32-.855a4.25 4.25 0 0 1-.885-1.38c-.21-.55-.315-1.17-.315-1.86 0-.68.11-1.29.33-1.83.22-.55.51-1.015.87-1.395.37-.39.79-.685 1.26-.885a3.53 3.53 0 0 1 1.455-.315c.58 0 1.085.1 1.515.3.44.2.805.48 1.095.84.3.36.525.785.675 1.275.15.49.225 1.025.225 1.605 0 .2-.01.395-.03.585-.02.18-.045.32-.075.42h-5.175c.09.69.34 1.215.75 1.575.42.35.945.525 1.575.525.35 0 .675-.05.975-.15.31-.1.615-.245.915-.435l.75 1.35c-.42.29-.885.52-1.395.69-.5.16-1.015.24-1.545.24zm1.365-5.25c0-.57-.13-1.02-.39-1.35-.26-.34-.66-.51-1.2-.51-.44 0-.835.16-1.185.48-.35.31-.565.77-.645 1.38h3.42zm7.376 5.25c-.58 0-1.12-.1-1.62-.3-.5-.2-.935-.485-1.305-.855-.36-.38-.645-.84-.855-1.38-.21-.55-.315-1.17-.315-1.86 0-.7.115-1.325.345-1.875.24-.55.555-1.01.945-1.38.39-.38.845-.67 1.365-.87.52-.2 1.065-.3 1.635-.3.52 0 .98.09 1.38.27.4.18.755.4 1.065.66l-1.05 1.425c-.21-.18-.42-.315-.63-.405-.2-.1-.42-.15-.66-.15-.64 0-1.16.24-1.56.72-.39.47-.585 1.105-.585 1.905 0 .79.195 1.42.585 1.89.39.47.89.705 1.5.705.3 0 .59-.06.87-.18.28-.13.535-.295.765-.495l.87 1.455c-.4.35-.84.61-1.32.78-.48.16-.955.24-1.425.24zm7.515 0c-.5 0-.925-.075-1.275-.225-.35-.15-.635-.36-.855-.63-.22-.28-.38-.615-.48-1.005-.1-.39-.15-.82-.15-1.29v-3.72h-1.185v-1.635l1.29-.105.255-2.25h1.845v2.25h2.07v1.74h-2.07v3.72c0 .94.38 1.41 1.14 1.41.14 0 .285-.015.435-.045.15-.04.28-.085.39-.135l.36 1.605c-.23.08-.49.15-.78.21-.29.07-.62.105-.99.105zm3.324-8.61h2.19v8.4h-2.19v-8.4zm1.11-1.35c-.38 0-.695-.11-.945-.33-.25-.23-.375-.52-.375-.87 0-.36.125-.65.375-.87.25-.22.565-.33.945-.33s.69.11.93.33c.25.22.375.51.375.87 0 .35-.125.64-.375.87-.24.22-.55.33-.93.33zm7.056 9.96a3.918 3.918 0 0 1-2.805-1.155c-.37-.38-.67-.84-.9-1.38-.22-.55-.33-1.17-.33-1.86 0-.7.11-1.325.33-1.875.23-.55.53-1.01.9-1.38.37-.38.795-.67 1.275-.87a4.011 4.011 0 0 1 3.045 0c.49.2.92.49 1.29.87.37.37.665.83.885 1.38.23.55.345 1.175.345 1.875 0 .69-.115 1.31-.345 1.86-.22.54-.515 1-.885 1.38-.37.37-.8.655-1.29.855-.49.2-.995.3-1.515.3zm0-1.8c.57 0 1.01-.235 1.32-.705.31-.47.465-1.1.465-1.89 0-.8-.155-1.435-.465-1.905-.31-.48-.75-.72-1.32-.72-.57 0-1.01.24-1.32.72-.31.47-.465 1.105-.465 1.905 0 .79.155 1.42.465 1.89.31.47.75.705 1.32.705zm5.979-6.81h1.8l.15 1.11h.06c.37-.36.775-.67 1.215-.93.44-.26.945-.39 1.515-.39.91 0 1.57.3 1.98.9.41.59.615 1.415.615 2.475V32.5h-2.205v-4.965c0-.65-.095-1.105-.285-1.365-.18-.26-.48-.39-.9-.39-.35 0-.65.08-.9.24-.25.16-.535.395-.855.705V32.5h-2.19v-8.4z" fill="#C84637"/>
</svg>
