<svg width="40" height="41" viewBox="0 0 40 41" fill="none" xmlns="http://www.w3.org/2000/svg">
    <circle cx="20" cy="20.5" r="20" fill="#C84637"/>
    <path d="M27.781 12.15a.5.5 0 0 0-.746.037L17.26 24.396l-.73-.742h0l-.003-.004-3.6-3.58a.5.5 0 0 0-.71.003l-1.574 1.6a.5.5 0 0 0 .006.708l2.022 1.978 1.572 1.596 2.85 2.896a.5.5 0 0 0 .744-.035l1.425-1.753h0l.002-.003L29.39 14.413a.5.5 0 0 0-.034-.664l-1.575-1.6z" fill="#F3F3F3" stroke="#F3F3F3" stroke-miterlimit="10" stroke-linecap="round" stroke-linejoin="round"/>
</svg>
