<svg width="60" height="60" viewBox="0 0 60 60" fill="none" xmlns="http://www.w3.org/2000/svg">
    <path d="M30.5 37.26a6.76 6.76 0 1 0 0-13.52 6.76 6.76 0 0 0 0 13.52z" stroke="#666" stroke-width="2" stroke-miterlimit="10" stroke-linecap="round" stroke-linejoin="round"/>
    <path d="m48.472 28.984-.433-2.918c-.144-.583-.722-1.166-1.444-1.166l-3.031-.146c-.433-.876-.866-1.75-1.444-2.626l1.444-2.626c.289-.583.144-1.313-.289-1.75l-2.165-1.897a1.505 1.505 0 0 0-1.877 0l-2.454 1.75c-.866-.437-1.876-.729-2.887-1.02l-.577-2.918c-.145-.73-.722-1.167-1.444-1.167h-2.887c-.722 0-1.299.438-1.443 1.167l-.578 2.917c-1.01.292-2.02.584-2.887 1.022l-2.31-1.75a1.505 1.505 0 0 0-1.876 0l-2.165 1.896c-.578.437-.722 1.167-.289 1.75l1.444 2.626c-.578.875-1.155 1.75-1.444 2.626l-3.176.145c-.721 0-1.299.584-1.299 1.168l-.433 2.917c-.144.73.289 1.313.866 1.605l2.598 1.167c0 1.02.29 2.042.578 3.063l-2.165 2.042c-.433.438-.578 1.167-.29 1.75l1.444 2.48c.29.584 1.01.876 1.733.73l2.887-.875c.722.73 1.443 1.459 2.31 1.896l-.434 2.918c-.144.73.289 1.313.866 1.604l2.743 1.022c.578.291 1.3 0 1.732-.584l1.588-2.48c.433 0 1.01.146 1.444.146.433 0 1.01 0 1.443-.146l1.588 2.48c.433.584 1.01.875 1.732.584l2.743-1.022c.578-.291 1.01-.875.866-1.604l-.433-2.918a14.607 14.607 0 0 0 2.31-1.896l2.887.875c.577.146 1.3 0 1.732-.73l1.444-2.48c.288-.583.288-1.312-.289-1.75l-2.165-2.042c.288-1.021.433-1.896.577-3.063l2.743-1.167c.577-.292 1.01-.876.866-1.605z" stroke="#666" stroke-width="2" stroke-miterlimit="10" stroke-linecap="round" stroke-linejoin="round"/>
    <rect x="1" y="1" width="58" height="58" rx="29" stroke="#B3B3B3" stroke-width="2"/>
</svg>
