<svg width="46" height="46" viewBox="0 0 46 46" fill="none" xmlns="http://www.w3.org/2000/svg">
    <path d="M41.75 6.38h-5.498v33h5.498v-33zM26.244 35.2c0-1.87-.343-3.63-1.03-5.17-1.26-2.42-3.552-4.07-7.218-4.07-5.842 0-8.247 4.07-8.247 9.13v1.87c0 1.32 1.145 2.42 2.52 2.42h11.455c1.375 0 2.52-1.1 2.52-2.42V35.2zM17.996 22.88c1.835 0 3.322-1.428 3.322-3.19s-1.487-3.19-3.322-3.19c-1.834 0-3.322 1.428-3.322 3.19s1.488 3.19 3.322 3.19z" stroke="#666" stroke-width="2" stroke-miterlimit="10" stroke-linecap="round" stroke-linejoin="round"/>
    <path d="M9.749 19.58c0-4.4 3.665-7.92 8.247-7.92s8.248 3.52 8.248 7.92c0 1.43-.458 2.75-1.145 3.96 1.489.88 2.634 1.43 4.81 2.64 1.146-1.98 1.834-4.18 1.834-6.6 0-7.26-6.186-13.2-13.747-13.2-7.56 0-13.746 5.94-13.746 13.2 0 2.42.687 4.62 1.833 6.6l4.811-2.64c-.802-1.1-1.145-2.42-1.145-3.96z" stroke="#666" stroke-width="2" stroke-miterlimit="10" stroke-linecap="round" stroke-linejoin="round"/>
</svg>
