<svg width="46" height="46" viewBox="0 0 46 46" fill="none" xmlns="http://www.w3.org/2000/svg">
    <path d="M14.732 4.89c9-.3 19.95 5.55 20.25 16.8.15 6.45-3.75 11.25-9.3 12.15-6.9 1.2-13.35-2.4-14.4-8.25-1.05-5.25.9-9.6 4.8-13.8 4.05-4.65-1.35-6.9-1.35-6.9zM20.131 16.59v3.3M26.432 16.59v3.3" stroke="#666" stroke-width="2" stroke-miterlimit="10" stroke-linecap="round" stroke-linejoin="round"/>
    <path d="M17.431 23.64s1.069 1.95 5.1 1.95c4.8 0 5.85-1.95 5.85-1.95M19.681 33.84v6.9" stroke="#666" stroke-width="2" stroke-miterlimit="10" stroke-linecap="round" stroke-linejoin="round"/>
    <path d="M24.5 40.88c0-.857.625-1.5 1.458-1.5h4.584c.833 0 1.458.643 1.458 1.5s-.625 1.5-1.458 1.5h-4.584c-.833 0-1.458-.643-1.458-1.5zM15.5 40.88c0-.857.625-1.5 1.458-1.5h4.584c.833 0 1.458.643 1.458 1.5s-.625 1.5-1.458 1.5h-4.584c-.833 0-1.458-.643-1.458-1.5z" fill="#666"/>
    <path d="M27.032 33.84v6.9" stroke="#666" stroke-width="2" stroke-miterlimit="10" stroke-linecap="round" stroke-linejoin="round"/>
</svg>
