<svg width="244" height="144" viewBox="0 0 244 144" fill="none" xmlns="http://www.w3.org/2000/svg">
    <path d="m81.489 109.653 102.965-14.587a15 15 0 0 1 7.913 1.022l44.489 18.686c.919.386.769 1.733-.213 1.907l-105.936 18.791c-3.42.606-6.944.007-9.971-1.695l-39.597-22.262c-.833-.469-.597-1.728.35-1.862z" stroke="#666" stroke-width="2" stroke-linecap="round"/>
    <path d="M237.5 116.457s-3.5 6.5-9.5 8c-4.882 1.221-70.519 13.035-94.806 17.394a24.104 24.104 0 0 1-16.731-3.111c-8.586-5.186-22.803-13.712-34.963-20.708a1.996 1.996 0 0 1-1-1.733v-5.842" stroke="#666" stroke-width="2" stroke-linecap="round"/>
    <path d="M182.53 10.06 83.77 23.954a3.32 3.32 0 0 0-2.68 3.251l-.13 71.112a2.361 2.361 0 0 0 2.66 2.51l98.79-13.884a3.35 3.35 0 0 0 2.69-3.27l.13-71.103a2.376 2.376 0 0 0-.751-1.9 2.37 2.37 0 0 0-1.949-.61" stroke="#666" stroke-width="2" stroke-miterlimit="10"/>
    <path d="M184.34 5.008 82 19.433a6.65 6.65 0 0 0-5.36 6.522l-.11 74.912c0 3.181 2.39 5.422 5.33 5.002l102.32-14.415a6.635 6.635 0 0 0 5.35-6.471l.15-74.963c0-3.181-2.38-5.432-5.34-5.002" stroke="#666" stroke-width="2" stroke-miterlimit="10"/>
    <path d="m79 105.489-5.451-3.414a2 2 0 0 1-.939-1.695V25.168a10 10 0 0 1 8.624-9.904l96.444-13.398a8 8 0 0 1 4.959.915l4.863 2.677" stroke="#666" stroke-width="2" stroke-miterlimit="10"/>
    <path d="M85.5 118.158v-1.534a.1.1 0 0 1 .147-.088l6.09 3.279a.502.502 0 0 1 .263.441v1.534a.1.1 0 0 1-.147.088l-6.09-3.279a.502.502 0 0 1-.263-.441z" stroke="#666"/>
    <path d="M6.5 114.457a8 8 0 0 1 8-8h29a1 1 0 0 1 1 1v14a1 1 0 0 1-1 1h-29a8 8 0 0 1-8-8zM44.5 108.457h9a1 1 0 0 1 1 1v10a1 1 0 0 1-1 1h-9v-12z" stroke="#666" stroke-width="2"/>
    <path d="M30.5 125.46c2.5 7 8.5 14.5 54-3" stroke="#06C" stroke-width="3" stroke-linecap="round" stroke-linejoin="round"/>
    <path d="m81.512 130.128-4.993-11.622 12.623.944-7.63 10.678z" fill="#06C" stroke="#06C" stroke-linecap="round" stroke-linejoin="round"/>
    <path d="M39.5 58.457h-18c-8.25 0-15 6.75-15 15v.5c0 8.25 6.75 15 15 15h8v9.5l10-9.5c8.25 0 15-6.75 15-15v-.5c0-8.25-6.75-15-15-15z" stroke="#666" stroke-width="2" stroke-miterlimit="10" stroke-linecap="round" stroke-linejoin="round"/>
    <path d="M29.987 75.977c-.05-.698-.012-1.275.115-1.732a4.23 4.23 0 0 1 .494-1.18c.216-.317.45-.59.704-.818.254-.228.489-.45.704-.666a3.12 3.12 0 0 0 .571-.723c.152-.266.229-.596.229-.99 0-.494-.12-.906-.362-1.236-.241-.343-.628-.514-1.16-.514-.534 0-.971.184-1.314.552-.342.368-.539.932-.59 1.693H27c.05-.837.216-1.541.495-2.112.291-.57.64-1.027 1.046-1.37a3.533 3.533 0 0 1 1.37-.704c.495-.14.977-.197 1.446-.171a5.163 5.163 0 0 1 1.56.304c.495.165.92.406 1.276.723.355.305.634.679.837 1.123.203.444.304.951.304 1.522 0 .66-.082 1.193-.247 1.599a3.427 3.427 0 0 1-.628 1.027 5.088 5.088 0 0 1-.78.704c-.28.203-.54.431-.78.685-.229.241-.419.54-.571.895-.152.355-.216.818-.19 1.389h-2.15zM31.072 81c-.495 0-.907-.171-1.237-.514-.33-.355-.495-.793-.495-1.313 0-.52.165-.951.495-1.294.33-.355.742-.532 1.237-.532.507 0 .926.177 1.256.532.33.343.495.774.495 1.294s-.165.958-.495 1.313c-.33.343-.749.514-1.256.514z" fill="#06C"/>
    <circle cx="103.5" cy="56.5" r="1.5" fill="#666"/>
    <circle cx="120.5" cy="55.5" r="1.5" fill="#666"/>
    <path d="M118 66.5c0 1.838-.583 2.892-1.377 3.518-.837.661-2.078.982-3.623.982-1.545 0-2.786-.32-3.623-.982-.794-.626-1.377-1.68-1.377-3.518 0-3.81 2.435-6.5 5-6.5s5 2.69 5 6.5z" stroke="#666" stroke-width="2"/>
</svg>
